<mxfile host="Electron" modified="2023-08-03T09:31:03.680Z" agent="Mozilla/5.0 (Windows NT 10.0; Win64; x64) AppleWebKit/537.36 (KHTML, like Gecko) draw.io/21.5.0 Chrome/112.0.5615.204 Electron/24.5.1 Safari/537.36" etag="wuLdV2XDOLrpMc4KhRIs" version="21.5.0" type="device">
  <diagram name="第 1 页" id="ritLLQ8AjiHa31bUFr7D">
    <mxGraphModel dx="1107" dy="1408" grid="1" gridSize="10" guides="0" tooltips="1" connect="1" arrows="1" fold="1" page="1" pageScale="1" pageWidth="1169" pageHeight="827" math="0" shadow="0">
      <root>
        <mxCell id="0" />
        <mxCell id="1" parent="0" />
        <mxCell id="JxjQhkmTE5tAGikNga0W-4" value="&lt;font style=&quot;font-size: 12px;&quot;&gt;LSU&lt;br&gt;&lt;/font&gt;" style="rounded=1;whiteSpace=wrap;html=1;" vertex="1" parent="1">
          <mxGeometry x="240" y="460" width="60" height="180" as="geometry" />
        </mxCell>
        <mxCell id="JxjQhkmTE5tAGikNga0W-5" value="&lt;font style=&quot;font-size: 12px;&quot;&gt;MUL &lt;br&gt;Decode&lt;/font&gt;" style="rounded=1;whiteSpace=wrap;html=1;" vertex="1" parent="1">
          <mxGeometry x="240.23" y="320" width="60" height="120" as="geometry" />
        </mxCell>
        <mxCell id="JxjQhkmTE5tAGikNga0W-6" value="" style="endArrow=classic;html=1;rounded=0;" edge="1" parent="1">
          <mxGeometry width="50" height="50" relative="1" as="geometry">
            <mxPoint x="120" y="50" as="sourcePoint" />
            <mxPoint x="240" y="50" as="targetPoint" />
          </mxGeometry>
        </mxCell>
        <mxCell id="JxjQhkmTE5tAGikNga0W-7" value="" style="endArrow=classic;html=1;rounded=0;" edge="1" parent="1">
          <mxGeometry width="50" height="50" relative="1" as="geometry">
            <mxPoint x="120" y="70" as="sourcePoint" />
            <mxPoint x="240" y="70" as="targetPoint" />
          </mxGeometry>
        </mxCell>
        <mxCell id="JxjQhkmTE5tAGikNga0W-8" value="" style="endArrow=classic;html=1;rounded=0;" edge="1" parent="1">
          <mxGeometry width="50" height="50" relative="1" as="geometry">
            <mxPoint x="120" y="90" as="sourcePoint" />
            <mxPoint x="240" y="90" as="targetPoint" />
          </mxGeometry>
        </mxCell>
        <mxCell id="JxjQhkmTE5tAGikNga0W-9" value="" style="endArrow=classic;html=1;rounded=0;" edge="1" parent="1">
          <mxGeometry width="50" height="50" relative="1" as="geometry">
            <mxPoint x="120" y="110" as="sourcePoint" />
            <mxPoint x="240" y="110" as="targetPoint" />
          </mxGeometry>
        </mxCell>
        <mxCell id="JxjQhkmTE5tAGikNga0W-10" value="" style="endArrow=classic;html=1;rounded=0;" edge="1" parent="1">
          <mxGeometry width="50" height="50" relative="1" as="geometry">
            <mxPoint x="120" y="130" as="sourcePoint" />
            <mxPoint x="240" y="130" as="targetPoint" />
          </mxGeometry>
        </mxCell>
        <mxCell id="JxjQhkmTE5tAGikNga0W-11" value="opcode_opcode_i[31:0]" style="text;whiteSpace=wrap;fontSize=10;" vertex="1" parent="1">
          <mxGeometry x="120" y="90" width="90" height="18" as="geometry" />
        </mxCell>
        <mxCell id="JxjQhkmTE5tAGikNga0W-12" value="opcode_pc_i[31:0]" style="text;whiteSpace=wrap;fontSize=10;" vertex="1" parent="1">
          <mxGeometry x="143" y="30" width="88" height="21" as="geometry" />
        </mxCell>
        <mxCell id="JxjQhkmTE5tAGikNga0W-13" value="opcode_rd_idx_i[4:0]" style="text;whiteSpace=wrap;fontSize=10;" vertex="1" parent="1">
          <mxGeometry x="132" y="50" width="80" height="19" as="geometry" />
        </mxCell>
        <mxCell id="JxjQhkmTE5tAGikNga0W-14" value="opcode_ra_idx_i[4:0]" style="text;whiteSpace=wrap;fontSize=10;" vertex="1" parent="1">
          <mxGeometry x="131" y="70" width="80" height="20" as="geometry" />
        </mxCell>
        <mxCell id="JxjQhkmTE5tAGikNga0W-15" value="opcode_ra_operand_i[31:0]" style="text;whiteSpace=wrap;fontSize=10;" vertex="1" parent="1">
          <mxGeometry x="101" y="109" width="100" height="10" as="geometry" />
        </mxCell>
        <mxCell id="JxjQhkmTE5tAGikNga0W-16" value="opcode_rb_operand_i[31:0]" style="text;whiteSpace=wrap;fontSize=10;" vertex="1" parent="1">
          <mxGeometry x="101" y="129" width="100" height="20" as="geometry" />
        </mxCell>
        <mxCell id="JxjQhkmTE5tAGikNga0W-18" value="&lt;font style=&quot;font-size: 12px;&quot;&gt;Branch&lt;/font&gt;" style="rounded=1;whiteSpace=wrap;html=1;" vertex="1" parent="1">
          <mxGeometry x="240" y="40" width="60" height="120" as="geometry" />
        </mxCell>
        <mxCell id="JxjQhkmTE5tAGikNga0W-24" value="" style="endArrow=classic;html=1;rounded=0;" edge="1" parent="1">
          <mxGeometry width="50" height="50" relative="1" as="geometry">
            <mxPoint x="120" y="149" as="sourcePoint" />
            <mxPoint x="240" y="149" as="targetPoint" />
          </mxGeometry>
        </mxCell>
        <mxCell id="JxjQhkmTE5tAGikNga0W-28" value="opcode_opcode_i[31:0]" style="text;whiteSpace=wrap;fontSize=10;" vertex="1" parent="1">
          <mxGeometry x="50" y="200" width="90" height="18" as="geometry" />
        </mxCell>
        <mxCell id="JxjQhkmTE5tAGikNga0W-30" value="" style="endArrow=classic;html=1;rounded=0;" edge="1" parent="1">
          <mxGeometry width="50" height="50" relative="1" as="geometry">
            <mxPoint x="160" y="220" as="sourcePoint" />
            <mxPoint x="240" y="200" as="targetPoint" />
            <Array as="points">
              <mxPoint x="160" y="200" />
            </Array>
          </mxGeometry>
        </mxCell>
        <mxCell id="JxjQhkmTE5tAGikNga0W-31" value="" style="endArrow=classic;html=1;rounded=0;" edge="1" parent="1">
          <mxGeometry width="50" height="50" relative="1" as="geometry">
            <mxPoint x="160" y="220" as="sourcePoint" />
            <mxPoint x="240" y="220" as="targetPoint" />
          </mxGeometry>
        </mxCell>
        <mxCell id="JxjQhkmTE5tAGikNga0W-32" value="shamt_r[4:0]" style="text;whiteSpace=wrap;fontSize=10;" vertex="1" parent="1">
          <mxGeometry x="173" y="180" width="57" height="18" as="geometry" />
        </mxCell>
        <mxCell id="JxjQhkmTE5tAGikNga0W-33" value="alu_func_r[3:0]" style="text;whiteSpace=wrap;fontSize=10;" vertex="1" parent="1">
          <mxGeometry x="162" y="200" width="70" height="21" as="geometry" />
        </mxCell>
        <mxCell id="JxjQhkmTE5tAGikNga0W-34" value="imm[31:0]" style="text;whiteSpace=wrap;fontSize=10;" vertex="1" parent="1">
          <mxGeometry x="184" y="220" width="50" height="19" as="geometry" />
        </mxCell>
        <mxCell id="JxjQhkmTE5tAGikNga0W-35" value="" style="endArrow=classic;html=1;rounded=0;" edge="1" parent="1">
          <mxGeometry width="50" height="50" relative="1" as="geometry">
            <mxPoint x="40" y="220" as="sourcePoint" />
            <mxPoint x="240" y="240" as="targetPoint" />
            <Array as="points">
              <mxPoint x="160" y="220" />
              <mxPoint x="160" y="240" />
            </Array>
          </mxGeometry>
        </mxCell>
        <mxCell id="JxjQhkmTE5tAGikNga0W-38" value="" style="endArrow=classic;html=1;rounded=0;" edge="1" parent="1">
          <mxGeometry width="50" height="50" relative="1" as="geometry">
            <mxPoint x="40" y="270" as="sourcePoint" />
            <mxPoint x="240" y="270" as="targetPoint" />
          </mxGeometry>
        </mxCell>
        <mxCell id="JxjQhkmTE5tAGikNga0W-39" value="opcode_ra_operand_i[31:0]" style="text;whiteSpace=wrap;fontSize=10;" vertex="1" parent="1">
          <mxGeometry x="106" y="250" width="100" height="10" as="geometry" />
        </mxCell>
        <mxCell id="JxjQhkmTE5tAGikNga0W-40" value="opcode_rb_operand_i[31:0]" style="text;whiteSpace=wrap;fontSize=10;" vertex="1" parent="1">
          <mxGeometry x="106" y="270" width="100" height="20" as="geometry" />
        </mxCell>
        <mxCell id="JxjQhkmTE5tAGikNga0W-41" value="" style="endArrow=classic;html=1;rounded=0;" edge="1" parent="1">
          <mxGeometry width="50" height="50" relative="1" as="geometry">
            <mxPoint x="40" y="290" as="sourcePoint" />
            <mxPoint x="240" y="290" as="targetPoint" />
          </mxGeometry>
        </mxCell>
        <mxCell id="JxjQhkmTE5tAGikNga0W-42" value="&lt;font style=&quot;font-size: 12px;&quot;&gt;ALU&lt;br&gt;&lt;/font&gt;" style="rounded=1;whiteSpace=wrap;html=1;" vertex="1" parent="1">
          <mxGeometry x="240" y="180" width="60" height="120" as="geometry" />
        </mxCell>
        <mxCell id="JxjQhkmTE5tAGikNga0W-45" value="" style="endArrow=classic;html=1;rounded=0;strokeWidth=1;exitX=0.004;exitY=0.167;exitDx=0;exitDy=0;exitPerimeter=0;" edge="1" parent="1">
          <mxGeometry width="50" height="50" relative="1" as="geometry">
            <mxPoint x="299.9999999999999" y="50.67000000000007" as="sourcePoint" />
            <mxPoint x="410" y="50" as="targetPoint" />
          </mxGeometry>
        </mxCell>
        <mxCell id="JxjQhkmTE5tAGikNga0W-46" value="" style="endArrow=classic;html=1;rounded=0;strokeWidth=1;exitX=0.001;exitY=0.072;exitDx=0;exitDy=0;exitPerimeter=0;" edge="1" parent="1">
          <mxGeometry width="50" height="50" relative="1" as="geometry">
            <mxPoint x="299.99999999999994" y="70.00000000000003" as="sourcePoint" />
            <mxPoint x="410" y="70" as="targetPoint" />
          </mxGeometry>
        </mxCell>
        <mxCell id="JxjQhkmTE5tAGikNga0W-47" value="" style="endArrow=classic;html=1;rounded=0;strokeWidth=1;exitX=1.002;exitY=0.481;exitDx=0;exitDy=0;exitPerimeter=0;" edge="1" parent="1">
          <mxGeometry width="50" height="50" relative="1" as="geometry">
            <mxPoint x="300" y="90" as="sourcePoint" />
            <mxPoint x="410" y="90" as="targetPoint" />
          </mxGeometry>
        </mxCell>
        <mxCell id="JxjQhkmTE5tAGikNga0W-48" value="&lt;span style=&quot;color: rgb(0, 0, 0); font-family: Helvetica; font-style: normal; font-variant-ligatures: normal; font-variant-caps: normal; font-weight: 400; letter-spacing: normal; orphans: 2; text-align: center; text-indent: 0px; text-transform: none; widows: 2; word-spacing: 0px; -webkit-text-stroke-width: 0px; text-decoration-thickness: initial; text-decoration-style: initial; text-decoration-color: initial; float: none; display: inline !important;&quot;&gt;&lt;font style=&quot;font-size: 10px;&quot;&gt;branch_is_call_r&lt;/font&gt;&lt;/span&gt;" style="text;whiteSpace=wrap;html=1;" vertex="1" parent="1">
          <mxGeometry x="326" y="28" width="75" height="18" as="geometry" />
        </mxCell>
        <mxCell id="JxjQhkmTE5tAGikNga0W-49" value="&lt;span style=&quot;color: rgb(0, 0, 0); font-family: Helvetica; font-style: normal; font-variant-ligatures: normal; font-variant-caps: normal; font-weight: 400; letter-spacing: normal; orphans: 2; text-align: center; text-indent: 0px; text-transform: none; widows: 2; word-spacing: 0px; -webkit-text-stroke-width: 0px; text-decoration-thickness: initial; text-decoration-style: initial; text-decoration-color: initial; float: none; display: inline !important;&quot;&gt;&lt;font style=&quot;font-size: 10px;&quot;&gt;branch_is_ret_r&lt;/font&gt;&lt;/span&gt;" style="text;whiteSpace=wrap;html=1;" vertex="1" parent="1">
          <mxGeometry x="328" y="48" width="70" height="18" as="geometry" />
        </mxCell>
        <mxCell id="JxjQhkmTE5tAGikNga0W-50" value="&lt;span style=&quot;color: rgb(0, 0, 0); font-family: Helvetica; font-style: normal; font-variant-ligatures: normal; font-variant-caps: normal; font-weight: 400; letter-spacing: normal; orphans: 2; text-align: center; text-indent: 0px; text-transform: none; widows: 2; word-spacing: 0px; -webkit-text-stroke-width: 0px; text-decoration-thickness: initial; text-decoration-style: initial; text-decoration-color: initial; float: none; display: inline !important;&quot;&gt;&lt;font style=&quot;font-size: 10px;&quot;&gt;branch_target_r[31:0]&lt;/font&gt;&lt;/span&gt;" style="text;whiteSpace=wrap;html=1;" vertex="1" parent="1">
          <mxGeometry x="303" y="88" width="104" height="22" as="geometry" />
        </mxCell>
        <mxCell id="JxjQhkmTE5tAGikNga0W-51" value="" style="endArrow=classic;html=1;rounded=0;strokeWidth=1;" edge="1" parent="1">
          <mxGeometry width="50" height="50" relative="1" as="geometry">
            <mxPoint x="300" y="110.00000000000006" as="sourcePoint" />
            <mxPoint x="410" y="110" as="targetPoint" />
          </mxGeometry>
        </mxCell>
        <mxCell id="JxjQhkmTE5tAGikNga0W-52" value="" style="endArrow=classic;html=1;rounded=0;strokeWidth=1;" edge="1" parent="1">
          <mxGeometry width="50" height="50" relative="1" as="geometry">
            <mxPoint x="300" y="129.99999999999991" as="sourcePoint" />
            <mxPoint x="410" y="130" as="targetPoint" />
          </mxGeometry>
        </mxCell>
        <mxCell id="JxjQhkmTE5tAGikNga0W-53" value="&lt;span style=&quot;color: rgb(0, 0, 0); font-family: Helvetica; font-style: normal; font-variant-ligatures: normal; font-variant-caps: normal; font-weight: 400; letter-spacing: normal; orphans: 2; text-align: center; text-indent: 0px; text-transform: none; widows: 2; word-spacing: 0px; -webkit-text-stroke-width: 0px; text-decoration-thickness: initial; text-decoration-style: initial; text-decoration-color: initial; float: none; display: inline !important;&quot;&gt;&lt;font style=&quot;font-size: 10px;&quot;&gt;branch_taken_r&lt;/font&gt;&lt;/span&gt;" style="text;whiteSpace=wrap;html=1;" vertex="1" parent="1">
          <mxGeometry x="328" y="108" width="80" height="20" as="geometry" />
        </mxCell>
        <mxCell id="JxjQhkmTE5tAGikNga0W-56" value="&lt;span style=&quot;color: rgb(0, 0, 0); font-family: Helvetica; font-style: normal; font-variant-ligatures: normal; font-variant-caps: normal; font-weight: 400; letter-spacing: normal; orphans: 2; text-align: center; text-indent: 0px; text-transform: none; widows: 2; word-spacing: 0px; -webkit-text-stroke-width: 0px; text-decoration-thickness: initial; text-decoration-style: initial; text-decoration-color: initial; float: none; display: inline !important;&quot;&gt;&lt;font style=&quot;font-size: 10px;&quot;&gt;branch_is_call_o&lt;/font&gt;&lt;/span&gt;" style="text;whiteSpace=wrap;html=1;" vertex="1" parent="1">
          <mxGeometry x="455.67" y="29" width="75" height="21" as="geometry" />
        </mxCell>
        <mxCell id="JxjQhkmTE5tAGikNga0W-57" value="&lt;span style=&quot;color: rgb(0, 0, 0); font-family: Helvetica; font-style: normal; font-variant-ligatures: normal; font-variant-caps: normal; font-weight: 400; letter-spacing: normal; orphans: 2; text-align: center; text-indent: 0px; text-transform: none; widows: 2; word-spacing: 0px; -webkit-text-stroke-width: 0px; text-decoration-thickness: initial; text-decoration-style: initial; text-decoration-color: initial; float: none; display: inline !important;&quot;&gt;&lt;font style=&quot;font-size: 10px;&quot;&gt;branch_is_ret_o&lt;/font&gt;&lt;/span&gt;" style="text;whiteSpace=wrap;html=1;" vertex="1" parent="1">
          <mxGeometry x="456.67" y="48" width="80" height="22" as="geometry" />
        </mxCell>
        <mxCell id="JxjQhkmTE5tAGikNga0W-58" value="&lt;span style=&quot;color: rgb(0, 0, 0); font-family: Helvetica; font-style: normal; font-variant-ligatures: normal; font-variant-caps: normal; font-weight: 400; letter-spacing: normal; orphans: 2; text-align: center; text-indent: 0px; text-transform: none; widows: 2; word-spacing: 0px; -webkit-text-stroke-width: 0px; text-decoration-thickness: initial; text-decoration-style: initial; text-decoration-color: initial; float: none; display: inline !important;&quot;&gt;&lt;font style=&quot;font-size: 10px;&quot;&gt;branch_is_jmp_o&lt;/font&gt;&lt;/span&gt;" style="text;whiteSpace=wrap;html=1;" vertex="1" parent="1">
          <mxGeometry x="456.67" y="68" width="80" height="21" as="geometry" />
        </mxCell>
        <mxCell id="JxjQhkmTE5tAGikNga0W-59" value="&lt;span style=&quot;color: rgb(0, 0, 0); font-family: Helvetica; font-style: normal; font-variant-ligatures: normal; font-variant-caps: normal; font-weight: 400; letter-spacing: normal; orphans: 2; text-align: center; text-indent: 0px; text-transform: none; widows: 2; word-spacing: 0px; -webkit-text-stroke-width: 0px; text-decoration-thickness: initial; text-decoration-style: initial; text-decoration-color: initial; float: none; display: inline !important;&quot;&gt;&lt;font style=&quot;font-size: 10px;&quot;&gt;branch_taken_o&lt;/font&gt;&lt;/span&gt;" style="text;whiteSpace=wrap;html=1;" vertex="1" parent="1">
          <mxGeometry x="456.67" y="107.5" width="80" height="21.5" as="geometry" />
        </mxCell>
        <mxCell id="JxjQhkmTE5tAGikNga0W-60" value="&lt;span style=&quot;color: rgb(0, 0, 0); font-family: Helvetica; font-style: normal; font-variant-ligatures: normal; font-variant-caps: normal; font-weight: 400; letter-spacing: normal; orphans: 2; text-align: center; text-indent: 0px; text-transform: none; widows: 2; word-spacing: 0px; -webkit-text-stroke-width: 0px; text-decoration-thickness: initial; text-decoration-style: initial; text-decoration-color: initial; float: none; display: inline !important;&quot;&gt;&lt;font style=&quot;font-size: 10px;&quot;&gt;branch_is_jmp_r&lt;/font&gt;&lt;/span&gt;" style="text;whiteSpace=wrap;html=1;" vertex="1" parent="1">
          <mxGeometry x="324" y="68" width="80" height="18" as="geometry" />
        </mxCell>
        <mxCell id="JxjQhkmTE5tAGikNga0W-61" value="D" style="rounded=1;whiteSpace=wrap;html=1;" vertex="1" parent="1">
          <mxGeometry x="410.67" y="62" width="40" height="17" as="geometry" />
        </mxCell>
        <mxCell id="JxjQhkmTE5tAGikNga0W-62" value="D" style="rounded=1;whiteSpace=wrap;html=1;" vertex="1" parent="1">
          <mxGeometry x="410.67" y="82" width="40" height="17" as="geometry" />
        </mxCell>
        <mxCell id="JxjQhkmTE5tAGikNga0W-63" value="D" style="rounded=1;whiteSpace=wrap;html=1;" vertex="1" parent="1">
          <mxGeometry x="410.67" y="102" width="40" height="17" as="geometry" />
        </mxCell>
        <mxCell id="JxjQhkmTE5tAGikNga0W-64" value="D" style="rounded=1;whiteSpace=wrap;html=1;" vertex="1" parent="1">
          <mxGeometry x="410.67" y="122" width="40" height="17" as="geometry" />
        </mxCell>
        <mxCell id="JxjQhkmTE5tAGikNga0W-65" value="D" style="rounded=1;whiteSpace=wrap;html=1;" vertex="1" parent="1">
          <mxGeometry x="410.67" y="42" width="40" height="17" as="geometry" />
        </mxCell>
        <mxCell id="JxjQhkmTE5tAGikNga0W-67" value="" style="endArrow=classic;html=1;rounded=0;entryX=-0.012;entryY=0.592;entryDx=0;entryDy=0;entryPerimeter=0;" edge="1" parent="1" target="JxjQhkmTE5tAGikNga0W-74">
          <mxGeometry width="50" height="50" relative="1" as="geometry">
            <mxPoint x="300" y="240" as="sourcePoint" />
            <mxPoint x="380" y="240" as="targetPoint" />
          </mxGeometry>
        </mxCell>
        <mxCell id="JxjQhkmTE5tAGikNga0W-68" value="alu_p_w[31:0]" style="text;whiteSpace=wrap;fontSize=10;" vertex="1" parent="1">
          <mxGeometry x="335" y="219" width="70" height="19" as="geometry" />
        </mxCell>
        <mxCell id="JxjQhkmTE5tAGikNga0W-69" value="" style="endArrow=classic;html=1;rounded=0;strokeWidth=1;exitX=0.004;exitY=0.167;exitDx=0;exitDy=0;exitPerimeter=0;" edge="1" parent="1">
          <mxGeometry width="50" height="50" relative="1" as="geometry">
            <mxPoint x="450.6699999999999" y="50.67000000000007" as="sourcePoint" />
            <mxPoint x="570.67" y="50" as="targetPoint" />
          </mxGeometry>
        </mxCell>
        <mxCell id="JxjQhkmTE5tAGikNga0W-70" value="" style="endArrow=classic;html=1;rounded=0;strokeWidth=1;exitX=0.001;exitY=0.072;exitDx=0;exitDy=0;exitPerimeter=0;" edge="1" parent="1">
          <mxGeometry width="50" height="50" relative="1" as="geometry">
            <mxPoint x="450.67" y="70.00000000000003" as="sourcePoint" />
            <mxPoint x="570.67" y="70" as="targetPoint" />
          </mxGeometry>
        </mxCell>
        <mxCell id="JxjQhkmTE5tAGikNga0W-71" value="" style="endArrow=classic;html=1;rounded=0;strokeWidth=1;exitX=1.002;exitY=0.481;exitDx=0;exitDy=0;exitPerimeter=0;" edge="1" parent="1">
          <mxGeometry width="50" height="50" relative="1" as="geometry">
            <mxPoint x="450.67" y="90" as="sourcePoint" />
            <mxPoint x="570.67" y="90" as="targetPoint" />
          </mxGeometry>
        </mxCell>
        <mxCell id="JxjQhkmTE5tAGikNga0W-72" value="" style="endArrow=classic;html=1;rounded=0;strokeWidth=1;" edge="1" parent="1">
          <mxGeometry width="50" height="50" relative="1" as="geometry">
            <mxPoint x="450.67" y="110.00000000000006" as="sourcePoint" />
            <mxPoint x="570.67" y="110" as="targetPoint" />
          </mxGeometry>
        </mxCell>
        <mxCell id="JxjQhkmTE5tAGikNga0W-73" value="" style="endArrow=classic;html=1;rounded=0;strokeWidth=1;" edge="1" parent="1">
          <mxGeometry width="50" height="50" relative="1" as="geometry">
            <mxPoint x="450.67" y="129.99999999999991" as="sourcePoint" />
            <mxPoint x="570.67" y="130" as="targetPoint" />
          </mxGeometry>
        </mxCell>
        <mxCell id="JxjQhkmTE5tAGikNga0W-55" value="&lt;span style=&quot;color: rgb(0, 0, 0); font-family: Helvetica; font-style: normal; font-variant-ligatures: normal; font-variant-caps: normal; font-weight: 400; letter-spacing: normal; orphans: 2; text-align: center; text-indent: 0px; text-transform: none; widows: 2; word-spacing: 0px; -webkit-text-stroke-width: 0px; text-decoration-thickness: initial; text-decoration-style: initial; text-decoration-color: initial; float: none; display: inline !important;&quot;&gt;&lt;font style=&quot;font-size: 10px;&quot;&gt;branch_target_o[31:0]&lt;/font&gt;&lt;/span&gt;" style="text;whiteSpace=wrap;html=1;" vertex="1" parent="1">
          <mxGeometry x="456.67" y="88" width="100.58" height="20" as="geometry" />
        </mxCell>
        <mxCell id="JxjQhkmTE5tAGikNga0W-74" value="D" style="rounded=1;whiteSpace=wrap;html=1;" vertex="1" parent="1">
          <mxGeometry x="410" y="230" width="40" height="17" as="geometry" />
        </mxCell>
        <mxCell id="JxjQhkmTE5tAGikNga0W-75" value="" style="endArrow=classic;html=1;rounded=0;" edge="1" parent="1">
          <mxGeometry width="50" height="50" relative="1" as="geometry">
            <mxPoint x="450" y="240" as="sourcePoint" />
            <mxPoint x="570" y="240" as="targetPoint" />
          </mxGeometry>
        </mxCell>
        <mxCell id="JxjQhkmTE5tAGikNga0W-76" value="alu_p_w[31:0]" style="text;whiteSpace=wrap;fontSize=10;" vertex="1" parent="1">
          <mxGeometry x="457" y="219" width="70" height="19" as="geometry" />
        </mxCell>
        <mxCell id="JxjQhkmTE5tAGikNga0W-77" value="" style="endArrow=classic;html=1;rounded=0;" edge="1" parent="1">
          <mxGeometry width="50" height="50" relative="1" as="geometry">
            <mxPoint x="120.23" y="360" as="sourcePoint" />
            <mxPoint x="240.23" y="360" as="targetPoint" />
          </mxGeometry>
        </mxCell>
        <mxCell id="JxjQhkmTE5tAGikNga0W-78" value="" style="endArrow=classic;html=1;rounded=0;" edge="1" parent="1">
          <mxGeometry width="50" height="50" relative="1" as="geometry">
            <mxPoint x="120.23" y="380" as="sourcePoint" />
            <mxPoint x="240.23" y="380" as="targetPoint" />
          </mxGeometry>
        </mxCell>
        <mxCell id="JxjQhkmTE5tAGikNga0W-79" value="" style="endArrow=classic;html=1;rounded=0;" edge="1" parent="1">
          <mxGeometry width="50" height="50" relative="1" as="geometry">
            <mxPoint x="120.23" y="400" as="sourcePoint" />
            <mxPoint x="240.23" y="400" as="targetPoint" />
          </mxGeometry>
        </mxCell>
        <mxCell id="JxjQhkmTE5tAGikNga0W-80" value="opcode_opcode_i[31:0]" style="text;whiteSpace=wrap;fontSize=10;" vertex="1" parent="1">
          <mxGeometry x="120.23" y="340" width="111" height="21" as="geometry" />
        </mxCell>
        <mxCell id="JxjQhkmTE5tAGikNga0W-81" value="opcode_ra_operand_i[31:0]" style="text;whiteSpace=wrap;fontSize=10;" vertex="1" parent="1">
          <mxGeometry x="101.23" y="360" width="130" height="19" as="geometry" />
        </mxCell>
        <mxCell id="JxjQhkmTE5tAGikNga0W-84" value="opcode_rb_operand_i[31:0]" style="text;whiteSpace=wrap;fontSize=10;" vertex="1" parent="1">
          <mxGeometry x="101.23" y="380" width="130" height="19" as="geometry" />
        </mxCell>
        <mxCell id="JxjQhkmTE5tAGikNga0W-85" value="" style="endArrow=classic;html=1;rounded=0;" edge="1" parent="1">
          <mxGeometry width="50" height="50" relative="1" as="geometry">
            <mxPoint x="300.23" y="360" as="sourcePoint" />
            <mxPoint x="410" y="360" as="targetPoint" />
          </mxGeometry>
        </mxCell>
        <mxCell id="JxjQhkmTE5tAGikNga0W-86" value="" style="endArrow=classic;html=1;rounded=0;" edge="1" parent="1">
          <mxGeometry width="50" height="50" relative="1" as="geometry">
            <mxPoint x="300.23" y="380" as="sourcePoint" />
            <mxPoint x="410" y="380" as="targetPoint" />
          </mxGeometry>
        </mxCell>
        <mxCell id="JxjQhkmTE5tAGikNga0W-87" value="" style="endArrow=classic;html=1;rounded=0;" edge="1" parent="1">
          <mxGeometry width="50" height="50" relative="1" as="geometry">
            <mxPoint x="300.23" y="400" as="sourcePoint" />
            <mxPoint x="410" y="400" as="targetPoint" />
          </mxGeometry>
        </mxCell>
        <mxCell id="JxjQhkmTE5tAGikNga0W-88" value="mul_inst_w" style="text;whiteSpace=wrap;fontSize=10;" vertex="1" parent="1">
          <mxGeometry x="348.23" y="340" width="51" height="21" as="geometry" />
        </mxCell>
        <mxCell id="JxjQhkmTE5tAGikNga0W-89" value="operand_a_r[31:0]" style="text;whiteSpace=wrap;fontSize=10;" vertex="1" parent="1">
          <mxGeometry x="317.23" y="360" width="90" height="19" as="geometry" />
        </mxCell>
        <mxCell id="JxjQhkmTE5tAGikNga0W-90" value="operand_b_r[31:0]" style="text;whiteSpace=wrap;fontSize=10;" vertex="1" parent="1">
          <mxGeometry x="317.23" y="380" width="90" height="19" as="geometry" />
        </mxCell>
        <mxCell id="JxjQhkmTE5tAGikNga0W-93" value="D" style="rounded=1;whiteSpace=wrap;html=1;" vertex="1" parent="1">
          <mxGeometry x="410.23" y="352" width="40" height="17" as="geometry" />
        </mxCell>
        <mxCell id="JxjQhkmTE5tAGikNga0W-94" value="D" style="rounded=1;whiteSpace=wrap;html=1;" vertex="1" parent="1">
          <mxGeometry x="410.23" y="372" width="40" height="17" as="geometry" />
        </mxCell>
        <mxCell id="JxjQhkmTE5tAGikNga0W-95" value="D" style="rounded=1;whiteSpace=wrap;html=1;" vertex="1" parent="1">
          <mxGeometry x="410.23" y="392" width="40" height="17" as="geometry" />
        </mxCell>
        <mxCell id="JxjQhkmTE5tAGikNga0W-96" value="&lt;span style=&quot;color: rgb(0, 0, 0); font-family: Helvetica; font-style: normal; font-variant-ligatures: normal; font-variant-caps: normal; font-weight: 400; letter-spacing: normal; orphans: 2; text-align: center; text-indent: 0px; text-transform: none; widows: 2; word-spacing: 0px; -webkit-text-stroke-width: 0px; text-decoration-thickness: initial; text-decoration-style: initial; text-decoration-color: initial; float: none; display: inline !important;&quot;&gt;&lt;font style=&quot;font-size: 10px;&quot;&gt;operand_b_e1_q[32:0]&lt;/font&gt;&lt;/span&gt;" style="text;whiteSpace=wrap;html=1;" vertex="1" parent="1">
          <mxGeometry x="457.23" y="377.5" width="80" height="21.5" as="geometry" />
        </mxCell>
        <mxCell id="JxjQhkmTE5tAGikNga0W-97" value="" style="endArrow=classic;html=1;rounded=0;strokeWidth=1;exitX=1.002;exitY=0.481;exitDx=0;exitDy=0;exitPerimeter=0;" edge="1" parent="1">
          <mxGeometry width="50" height="50" relative="1" as="geometry">
            <mxPoint x="450.23" y="360" as="sourcePoint" />
            <mxPoint x="570.23" y="360" as="targetPoint" />
          </mxGeometry>
        </mxCell>
        <mxCell id="JxjQhkmTE5tAGikNga0W-98" value="" style="endArrow=classic;html=1;rounded=0;strokeWidth=1;" edge="1" parent="1">
          <mxGeometry width="50" height="50" relative="1" as="geometry">
            <mxPoint x="450.23" y="380.00000000000006" as="sourcePoint" />
            <mxPoint x="570.23" y="380" as="targetPoint" />
          </mxGeometry>
        </mxCell>
        <mxCell id="JxjQhkmTE5tAGikNga0W-99" value="" style="endArrow=classic;html=1;rounded=0;strokeWidth=1;" edge="1" parent="1">
          <mxGeometry width="50" height="50" relative="1" as="geometry">
            <mxPoint x="450.23" y="399.9999999999999" as="sourcePoint" />
            <mxPoint x="570.23" y="400" as="targetPoint" />
          </mxGeometry>
        </mxCell>
        <mxCell id="JxjQhkmTE5tAGikNga0W-100" value="&lt;span style=&quot;color: rgb(0, 0, 0); font-family: Helvetica; font-style: normal; font-variant-ligatures: normal; font-variant-caps: normal; font-weight: 400; letter-spacing: normal; orphans: 2; text-align: center; text-indent: 0px; text-transform: none; widows: 2; word-spacing: 0px; -webkit-text-stroke-width: 0px; text-decoration-thickness: initial; text-decoration-style: initial; text-decoration-color: initial; float: none; display: inline !important;&quot;&gt;&lt;font style=&quot;font-size: 10px;&quot;&gt;operand_a_e1_q[32:0]&lt;/font&gt;&lt;/span&gt;" style="text;whiteSpace=wrap;html=1;" vertex="1" parent="1">
          <mxGeometry x="457.23" y="358" width="100.58" height="20" as="geometry" />
        </mxCell>
        <mxCell id="JxjQhkmTE5tAGikNga0W-101" value="&lt;span style=&quot;color: rgb(0, 0, 0); font-family: Helvetica; font-style: normal; font-variant-ligatures: normal; font-variant-caps: normal; font-weight: 400; letter-spacing: normal; orphans: 2; text-align: center; text-indent: 0px; text-transform: none; widows: 2; word-spacing: 0px; -webkit-text-stroke-width: 0px; text-decoration-thickness: initial; text-decoration-style: initial; text-decoration-color: initial; float: none; display: inline !important;&quot;&gt;&lt;font style=&quot;font-size: 10px;&quot;&gt;mulhi_sel_e1_q&lt;/font&gt;&lt;/span&gt;" style="text;whiteSpace=wrap;html=1;" vertex="1" parent="1">
          <mxGeometry x="457.23" y="338" width="100.58" height="20" as="geometry" />
        </mxCell>
        <mxCell id="JxjQhkmTE5tAGikNga0W-102" value="&lt;font style=&quot;font-size: 12px;&quot;&gt;MUL&lt;br&gt;&lt;/font&gt;" style="rounded=1;whiteSpace=wrap;html=1;" vertex="1" parent="1">
          <mxGeometry x="570.23" y="320" width="60" height="120" as="geometry" />
        </mxCell>
        <mxCell id="JxjQhkmTE5tAGikNga0W-113" value="" style="shape=trapezoid;perimeter=trapezoidPerimeter;whiteSpace=wrap;html=1;fixedSize=1;rotation=90;size=8.75;" vertex="1" parent="1">
          <mxGeometry x="949" y="381" width="30" height="17" as="geometry" />
        </mxCell>
        <mxCell id="JxjQhkmTE5tAGikNga0W-114" value="&lt;span style=&quot;color: rgb(0, 0, 0); font-family: Helvetica; font-style: normal; font-variant-ligatures: normal; font-variant-caps: normal; font-weight: 400; letter-spacing: normal; orphans: 2; text-align: left; text-indent: 0px; text-transform: none; widows: 2; word-spacing: 0px; -webkit-text-stroke-width: 0px; text-decoration-thickness: initial; text-decoration-style: initial; text-decoration-color: initial; float: none; display: inline !important;&quot;&gt;&lt;font style=&quot;font-size: 10px;&quot;&gt;result_r[31:0]&lt;/font&gt;&lt;/span&gt;" style="text;whiteSpace=wrap;html=1;" vertex="1" parent="1">
          <mxGeometry x="630" y="358" width="50" height="20" as="geometry" />
        </mxCell>
        <mxCell id="JxjQhkmTE5tAGikNga0W-115" value="" style="endArrow=classic;html=1;rounded=0;strokeWidth=1;" edge="1" parent="1">
          <mxGeometry width="50" height="50" relative="1" as="geometry">
            <mxPoint x="630" y="380" as="sourcePoint" />
            <mxPoint x="700" y="380" as="targetPoint" />
          </mxGeometry>
        </mxCell>
        <mxCell id="JxjQhkmTE5tAGikNga0W-116" value="" style="endArrow=classic;html=1;rounded=0;strokeWidth=1;" edge="1" parent="1">
          <mxGeometry width="50" height="50" relative="1" as="geometry">
            <mxPoint x="780" y="389" as="sourcePoint" />
            <mxPoint x="830" y="389" as="targetPoint" />
          </mxGeometry>
        </mxCell>
        <mxCell id="JxjQhkmTE5tAGikNga0W-117" value="&lt;span style=&quot;color: rgb(0, 0, 0); font-family: Helvetica; font-style: normal; font-variant-ligatures: normal; font-variant-caps: normal; font-weight: 400; letter-spacing: normal; orphans: 2; text-align: left; text-indent: 0px; text-transform: none; widows: 2; word-spacing: 0px; -webkit-text-stroke-width: 0px; text-decoration-thickness: initial; text-decoration-style: initial; text-decoration-color: initial; float: none; display: inline !important;&quot;&gt;&lt;font style=&quot;font-size: 10px;&quot;&gt;result_e2_q[31:0]&lt;/font&gt;&lt;/span&gt;" style="text;whiteSpace=wrap;html=1;" vertex="1" parent="1">
          <mxGeometry x="805" y="328" width="50" height="20" as="geometry" />
        </mxCell>
        <mxCell id="JxjQhkmTE5tAGikNga0W-118" value="" style="group" vertex="1" connectable="0" parent="1">
          <mxGeometry x="700.5" y="371" width="17" height="31.5" as="geometry" />
        </mxCell>
        <mxCell id="JxjQhkmTE5tAGikNga0W-119" value="" style="shape=trapezoid;perimeter=trapezoidPerimeter;whiteSpace=wrap;html=1;fixedSize=1;rotation=90;size=8.75;" vertex="1" parent="JxjQhkmTE5tAGikNga0W-118">
          <mxGeometry x="-6.5" y="8" width="30" height="17" as="geometry" />
        </mxCell>
        <mxCell id="JxjQhkmTE5tAGikNga0W-120" value="&lt;p style=&quot;line-height: 100%;&quot;&gt;&lt;font face=&quot;Times New Roman&quot; style=&quot;font-size: 6px;&quot;&gt;0&lt;br&gt;1&lt;/font&gt;&lt;/p&gt;" style="text;align=center;html=1;verticalAlign=middle;whiteSpace=wrap;rounded=0;" vertex="1" parent="JxjQhkmTE5tAGikNga0W-118">
          <mxGeometry x="0.25" width="8" height="30" as="geometry" />
        </mxCell>
        <mxCell id="JxjQhkmTE5tAGikNga0W-121" value="" style="endArrow=classic;html=1;rounded=1;strokeWidth=1;" edge="1" parent="1">
          <mxGeometry width="50" height="50" relative="1" as="geometry">
            <mxPoint x="709" y="356" as="sourcePoint" />
            <mxPoint x="709" y="376" as="targetPoint" />
          </mxGeometry>
        </mxCell>
        <mxCell id="JxjQhkmTE5tAGikNga0W-122" value="&lt;span style=&quot;color: rgb(0, 0, 0); font-family: Helvetica; font-size: 10px; font-style: normal; font-variant-ligatures: normal; font-variant-caps: normal; font-weight: 400; letter-spacing: normal; orphans: 2; text-align: left; text-indent: 0px; text-transform: none; widows: 2; word-spacing: 0px; -webkit-text-stroke-width: 0px; text-decoration-thickness: initial; text-decoration-style: initial; text-decoration-color: initial; float: none; display: inline !important;&quot;&gt;hold_i&lt;/span&gt;" style="text;whiteSpace=wrap;html=1;fontSize=10;" vertex="1" parent="1">
          <mxGeometry x="696" y="336" width="31" height="20" as="geometry" />
        </mxCell>
        <mxCell id="JxjQhkmTE5tAGikNga0W-123" value="" style="endArrow=classic;html=1;rounded=0;strokeWidth=1;" edge="1" parent="1">
          <mxGeometry width="50" height="50" relative="1" as="geometry">
            <mxPoint x="718" y="388" as="sourcePoint" />
            <mxPoint x="740" y="388" as="targetPoint" />
          </mxGeometry>
        </mxCell>
        <mxCell id="JxjQhkmTE5tAGikNga0W-124" value="" style="endArrow=classic;html=1;rounded=0;edgeStyle=orthogonalEdgeStyle;exitX=0.432;exitY=0.725;exitDx=0;exitDy=0;exitPerimeter=0;" edge="1" parent="1" source="JxjQhkmTE5tAGikNga0W-140">
          <mxGeometry width="50" height="50" relative="1" as="geometry">
            <mxPoint x="800" y="397" as="sourcePoint" />
            <mxPoint x="700" y="396" as="targetPoint" />
            <Array as="points">
              <mxPoint x="800" y="427" />
              <mxPoint x="670" y="427" />
              <mxPoint x="670" y="396" />
            </Array>
          </mxGeometry>
        </mxCell>
        <mxCell id="JxjQhkmTE5tAGikNga0W-125" value="" style="endArrow=classic;html=1;rounded=0;strokeWidth=1;" edge="1" parent="1">
          <mxGeometry width="50" height="50" relative="1" as="geometry">
            <mxPoint x="910" y="398" as="sourcePoint" />
            <mxPoint x="956" y="398" as="targetPoint" />
          </mxGeometry>
        </mxCell>
        <mxCell id="JxjQhkmTE5tAGikNga0W-129" value="" style="endArrow=classic;html=1;rounded=1;strokeWidth=1;" edge="1" parent="1">
          <mxGeometry width="50" height="50" relative="1" as="geometry">
            <mxPoint x="840" y="366" as="sourcePoint" />
            <mxPoint x="840" y="386" as="targetPoint" />
          </mxGeometry>
        </mxCell>
        <mxCell id="JxjQhkmTE5tAGikNga0W-130" value="&lt;span style=&quot;color: rgb(0, 0, 0); font-family: Helvetica; font-style: normal; font-variant-ligatures: normal; font-variant-caps: normal; font-weight: 400; letter-spacing: normal; orphans: 2; text-align: left; text-indent: 0px; text-transform: none; widows: 2; word-spacing: 0px; -webkit-text-stroke-width: 0px; background-color: rgb(251, 251, 251); text-decoration-thickness: initial; text-decoration-style: initial; text-decoration-color: initial; float: none; display: inline !important;&quot;&gt;&lt;font style=&quot;font-size: 10px;&quot;&gt;hold_i&lt;/font&gt;&lt;/span&gt;" style="text;whiteSpace=wrap;html=1;" vertex="1" parent="1">
          <mxGeometry x="825" y="347" width="10" height="20" as="geometry" />
        </mxCell>
        <mxCell id="JxjQhkmTE5tAGikNga0W-131" value="" style="endArrow=classic;html=1;rounded=0;strokeWidth=1;exitX=0.5;exitY=0;exitDx=0;exitDy=0;entryX=-0.01;entryY=0.437;entryDx=0;entryDy=0;entryPerimeter=0;" edge="1" parent="1" target="JxjQhkmTE5tAGikNga0W-143">
          <mxGeometry width="50" height="50" relative="1" as="geometry">
            <mxPoint x="847.4999999999999" y="396.5" as="sourcePoint" />
            <mxPoint x="870" y="397" as="targetPoint" />
          </mxGeometry>
        </mxCell>
        <mxCell id="JxjQhkmTE5tAGikNga0W-132" value="" style="endArrow=classic;html=1;rounded=0;edgeStyle=orthogonalEdgeStyle;exitX=0.267;exitY=0.658;exitDx=0;exitDy=0;exitPerimeter=0;" edge="1" parent="1">
          <mxGeometry width="50" height="50" relative="1" as="geometry">
            <mxPoint x="940.335" y="398.28999999999996" as="sourcePoint" />
            <mxPoint x="830" y="405" as="targetPoint" />
            <Array as="points">
              <mxPoint x="940" y="427" />
              <mxPoint x="810" y="427" />
              <mxPoint x="810" y="405" />
            </Array>
          </mxGeometry>
        </mxCell>
        <mxCell id="JxjQhkmTE5tAGikNga0W-133" value="&lt;span style=&quot;color: rgb(0, 0, 0); font-family: Helvetica; font-style: normal; font-variant-ligatures: normal; font-variant-caps: normal; font-weight: 400; letter-spacing: normal; orphans: 2; text-align: left; text-indent: 0px; text-transform: none; widows: 2; word-spacing: 0px; -webkit-text-stroke-width: 0px; text-decoration-thickness: initial; text-decoration-style: initial; text-decoration-color: initial; float: none; display: inline !important;&quot;&gt;&lt;font style=&quot;font-size: 10px;&quot;&gt;result_e3_q[31:0]&lt;/font&gt;&lt;/span&gt;" style="text;whiteSpace=wrap;html=1;" vertex="1" parent="1">
          <mxGeometry x="840" y="406" width="68" height="20" as="geometry" />
        </mxCell>
        <mxCell id="JxjQhkmTE5tAGikNga0W-134" value="&lt;p style=&quot;line-height: 100%;&quot;&gt;&lt;font face=&quot;Times New Roman&quot; style=&quot;font-size: 6px;&quot;&gt;1&lt;br&gt;0&lt;br&gt;&lt;/font&gt;&lt;/p&gt;" style="text;align=center;html=1;verticalAlign=middle;whiteSpace=wrap;rounded=0;" vertex="1" parent="1">
          <mxGeometry x="955" y="374" width="8" height="30" as="geometry" />
        </mxCell>
        <mxCell id="JxjQhkmTE5tAGikNga0W-135" value="" style="endArrow=classic;html=1;rounded=0;edgeStyle=orthogonalEdgeStyle;entryX=0.021;entryY=0.182;entryDx=0;entryDy=0;entryPerimeter=0;" edge="1" parent="1" target="JxjQhkmTE5tAGikNga0W-134">
          <mxGeometry width="50" height="50" relative="1" as="geometry">
            <mxPoint x="813" y="389" as="sourcePoint" />
            <mxPoint x="927" y="356" as="targetPoint" />
            <Array as="points">
              <mxPoint x="813" y="350" />
              <mxPoint x="883" y="350" />
              <mxPoint x="883" y="380" />
            </Array>
          </mxGeometry>
        </mxCell>
        <mxCell id="JxjQhkmTE5tAGikNga0W-136" value="" style="shape=ellipse;fillColor=#000000;strokeColor=none;html=1;sketch=0;strokeWidth=0;" vertex="1" parent="1">
          <mxGeometry x="810" y="385.99999999999994" width="5" height="5" as="geometry" />
        </mxCell>
        <mxCell id="JxjQhkmTE5tAGikNga0W-137" value="" style="endArrow=classic;html=1;rounded=1;strokeWidth=1;" edge="1" parent="1">
          <mxGeometry width="50" height="50" relative="1" as="geometry">
            <mxPoint x="965" y="358" as="sourcePoint" />
            <mxPoint x="965" y="378" as="targetPoint" />
          </mxGeometry>
        </mxCell>
        <mxCell id="JxjQhkmTE5tAGikNga0W-138" value="MULT_STAGES" style="text;whiteSpace=wrap;fontSize=10;" vertex="1" parent="1">
          <mxGeometry x="929" y="337" width="90" height="20" as="geometry" />
        </mxCell>
        <mxCell id="JxjQhkmTE5tAGikNga0W-139" value="&lt;span style=&quot;color: rgb(0, 0, 0); font-family: Helvetica; font-style: normal; font-variant-ligatures: normal; font-variant-caps: normal; font-weight: 400; letter-spacing: normal; orphans: 2; text-align: center; text-indent: 0px; text-transform: none; widows: 2; word-spacing: 0px; -webkit-text-stroke-width: 0px; text-decoration-thickness: initial; text-decoration-style: initial; text-decoration-color: initial; float: none; display: inline !important;&quot;&gt;&lt;font style=&quot;font-size: 10px;&quot;&gt;writeback_value_o[31:0]&lt;/font&gt;&lt;/span&gt;" style="text;whiteSpace=wrap;html=1;" vertex="1" parent="1">
          <mxGeometry x="981" y="368" width="96" height="13" as="geometry" />
        </mxCell>
        <mxCell id="JxjQhkmTE5tAGikNga0W-140" value="" style="shape=ellipse;fillColor=#000000;strokeColor=none;html=1;sketch=0;strokeWidth=0;" vertex="1" parent="1">
          <mxGeometry x="798" y="385.99999999999994" width="5" height="5" as="geometry" />
        </mxCell>
        <mxCell id="JxjQhkmTE5tAGikNga0W-141" value="D" style="rounded=1;whiteSpace=wrap;html=1;" vertex="1" parent="1">
          <mxGeometry x="740" y="379" width="40" height="17" as="geometry" />
        </mxCell>
        <mxCell id="JxjQhkmTE5tAGikNga0W-142" value="" style="shape=ellipse;fillColor=#000000;strokeColor=none;html=1;sketch=0;strokeWidth=0;" vertex="1" parent="1">
          <mxGeometry x="938" y="395" width="5" height="5" as="geometry" />
        </mxCell>
        <mxCell id="JxjQhkmTE5tAGikNga0W-143" value="D" style="rounded=1;whiteSpace=wrap;html=1;" vertex="1" parent="1">
          <mxGeometry x="870" y="389" width="40" height="17" as="geometry" />
        </mxCell>
        <mxCell id="JxjQhkmTE5tAGikNga0W-144" value="&lt;span style=&quot;color: rgb(0, 0, 0); font-family: Helvetica; font-style: normal; font-variant-ligatures: normal; font-variant-caps: normal; font-weight: 400; letter-spacing: normal; orphans: 2; text-align: left; text-indent: 0px; text-transform: none; widows: 2; word-spacing: 0px; -webkit-text-stroke-width: 0px; text-decoration-thickness: initial; text-decoration-style: initial; text-decoration-color: initial; float: none; display: inline !important;&quot;&gt;&lt;font style=&quot;font-size: 10px;&quot;&gt;result_e2_q[31:0]&lt;/font&gt;&lt;/span&gt;" style="text;whiteSpace=wrap;html=1;" vertex="1" parent="1">
          <mxGeometry x="701" y="406" width="83" height="14" as="geometry" />
        </mxCell>
        <mxCell id="JxjQhkmTE5tAGikNga0W-148" value="" style="group" vertex="1" connectable="0" parent="1">
          <mxGeometry x="830.5" y="380" width="17" height="31.5" as="geometry" />
        </mxCell>
        <mxCell id="JxjQhkmTE5tAGikNga0W-149" value="" style="shape=trapezoid;perimeter=trapezoidPerimeter;whiteSpace=wrap;html=1;fixedSize=1;rotation=90;size=8.75;" vertex="1" parent="JxjQhkmTE5tAGikNga0W-148">
          <mxGeometry x="-6.5" y="8" width="30" height="17" as="geometry" />
        </mxCell>
        <mxCell id="JxjQhkmTE5tAGikNga0W-150" value="&lt;p style=&quot;line-height: 100%;&quot;&gt;&lt;font face=&quot;Times New Roman&quot; style=&quot;font-size: 6px;&quot;&gt;0&lt;br&gt;1&lt;/font&gt;&lt;/p&gt;" style="text;align=center;html=1;verticalAlign=middle;whiteSpace=wrap;rounded=0;" vertex="1" parent="JxjQhkmTE5tAGikNga0W-148">
          <mxGeometry x="0.25" width="8" height="30" as="geometry" />
        </mxCell>
        <mxCell id="JxjQhkmTE5tAGikNga0W-151" value="" style="endArrow=classic;html=1;rounded=0;" edge="1" parent="1">
          <mxGeometry width="50" height="50" relative="1" as="geometry">
            <mxPoint x="973" y="390" as="sourcePoint" />
            <mxPoint x="1100" y="390" as="targetPoint" />
          </mxGeometry>
        </mxCell>
        <mxCell id="JxjQhkmTE5tAGikNga0W-152" value="" style="endArrow=classic;html=1;rounded=0;" edge="1" parent="1">
          <mxGeometry width="50" height="50" relative="1" as="geometry">
            <mxPoint x="119.00000000000001" y="520" as="sourcePoint" />
            <mxPoint x="239" y="520" as="targetPoint" />
          </mxGeometry>
        </mxCell>
        <mxCell id="JxjQhkmTE5tAGikNga0W-153" value="" style="endArrow=classic;html=1;rounded=0;" edge="1" parent="1">
          <mxGeometry width="50" height="50" relative="1" as="geometry">
            <mxPoint x="119.00000000000001" y="540" as="sourcePoint" />
            <mxPoint x="239" y="540" as="targetPoint" />
          </mxGeometry>
        </mxCell>
        <mxCell id="JxjQhkmTE5tAGikNga0W-154" value="" style="endArrow=classic;html=1;rounded=0;" edge="1" parent="1">
          <mxGeometry width="50" height="50" relative="1" as="geometry">
            <mxPoint x="119.00000000000001" y="560" as="sourcePoint" />
            <mxPoint x="239" y="560" as="targetPoint" />
          </mxGeometry>
        </mxCell>
        <mxCell id="JxjQhkmTE5tAGikNga0W-155" value="opcode_opcode_i[31:0]" style="text;whiteSpace=wrap;fontSize=10;" vertex="1" parent="1">
          <mxGeometry x="119.00000000000001" y="500" width="111" height="21" as="geometry" />
        </mxCell>
        <mxCell id="JxjQhkmTE5tAGikNga0W-156" value="opcode_ra_operand_i[31:0]" style="text;whiteSpace=wrap;fontSize=10;" vertex="1" parent="1">
          <mxGeometry x="100" y="520" width="130" height="19" as="geometry" />
        </mxCell>
        <mxCell id="JxjQhkmTE5tAGikNga0W-157" value="opcode_rb_operand_i[31:0]" style="text;whiteSpace=wrap;fontSize=10;" vertex="1" parent="1">
          <mxGeometry x="100" y="540" width="130" height="19" as="geometry" />
        </mxCell>
        <mxCell id="JxjQhkmTE5tAGikNga0W-158" value="" style="endArrow=classic;html=1;rounded=0;strokeWidth=1;exitX=1;exitY=0.11;exitDx=0;exitDy=0;exitPerimeter=0;" edge="1" parent="1">
          <mxGeometry width="50" height="50" relative="1" as="geometry">
            <mxPoint x="300" y="599.8" as="sourcePoint" />
            <mxPoint x="410" y="600" as="targetPoint" />
          </mxGeometry>
        </mxCell>
        <mxCell id="JxjQhkmTE5tAGikNga0W-159" value="" style="endArrow=classic;html=1;rounded=0;strokeWidth=1;exitX=0.001;exitY=0.072;exitDx=0;exitDy=0;exitPerimeter=0;" edge="1" parent="1">
          <mxGeometry width="50" height="50" relative="1" as="geometry">
            <mxPoint x="300" y="620" as="sourcePoint" />
            <mxPoint x="410" y="620" as="targetPoint" />
          </mxGeometry>
        </mxCell>
        <mxCell id="JxjQhkmTE5tAGikNga0W-160" value="" style="endArrow=classic;html=1;rounded=0;strokeWidth=1;exitX=1.002;exitY=0.481;exitDx=0;exitDy=0;exitPerimeter=0;" edge="1" parent="1">
          <mxGeometry width="50" height="50" relative="1" as="geometry">
            <mxPoint x="300" y="560" as="sourcePoint" />
            <mxPoint x="410" y="560" as="targetPoint" />
          </mxGeometry>
        </mxCell>
        <mxCell id="JxjQhkmTE5tAGikNga0W-161" value="&lt;span style=&quot;color: rgb(0, 0, 0); font-family: Helvetica; font-style: normal; font-variant-ligatures: normal; font-variant-caps: normal; font-weight: 400; letter-spacing: normal; orphans: 2; text-align: center; text-indent: 0px; text-transform: none; widows: 2; word-spacing: 0px; -webkit-text-stroke-width: 0px; text-decoration-thickness: initial; text-decoration-style: initial; text-decoration-color: initial; float: none; display: inline !important;&quot;&gt;&lt;font style=&quot;font-size: 10px;&quot;&gt;mem_wr_r[3:0]&lt;/font&gt;&lt;/span&gt;" style="text;whiteSpace=wrap;html=1;" vertex="1" parent="1">
          <mxGeometry x="327" y="577" width="75" height="18" as="geometry" />
        </mxCell>
        <mxCell id="JxjQhkmTE5tAGikNga0W-162" value="&lt;span style=&quot;color: rgb(0, 0, 0); font-family: Helvetica; font-style: normal; font-variant-ligatures: normal; font-variant-caps: normal; font-weight: 400; letter-spacing: normal; orphans: 2; text-align: center; text-indent: 0px; text-transform: none; widows: 2; word-spacing: 0px; -webkit-text-stroke-width: 0px; text-decoration-thickness: initial; text-decoration-style: initial; text-decoration-color: initial; float: none; display: inline !important;&quot;&gt;&lt;font style=&quot;font-size: 10px;&quot;&gt;mem_rd_r&lt;/font&gt;&lt;/span&gt;" style="text;whiteSpace=wrap;html=1;" vertex="1" parent="1">
          <mxGeometry x="348" y="599" width="52" height="18" as="geometry" />
        </mxCell>
        <mxCell id="JxjQhkmTE5tAGikNga0W-163" value="&lt;div style=&quot;text-align: center;&quot;&gt;&lt;span style=&quot;background-color: initial; font-size: 10px;&quot;&gt;req_sb_w | req_lb_w&lt;/span&gt;&lt;/div&gt;" style="text;whiteSpace=wrap;html=1;" vertex="1" parent="1">
          <mxGeometry x="302" y="458" width="104" height="22" as="geometry" />
        </mxCell>
        <mxCell id="JxjQhkmTE5tAGikNga0W-164" value="" style="endArrow=classic;html=1;rounded=0;strokeWidth=1;" edge="1" parent="1">
          <mxGeometry width="50" height="50" relative="1" as="geometry">
            <mxPoint x="300" y="480" as="sourcePoint" />
            <mxPoint x="410" y="480" as="targetPoint" />
          </mxGeometry>
        </mxCell>
        <mxCell id="JxjQhkmTE5tAGikNga0W-165" value="" style="endArrow=classic;html=1;rounded=0;strokeWidth=1;" edge="1" parent="1">
          <mxGeometry width="50" height="50" relative="1" as="geometry">
            <mxPoint x="300" y="499.9999999999999" as="sourcePoint" />
            <mxPoint x="410" y="500" as="targetPoint" />
          </mxGeometry>
        </mxCell>
        <mxCell id="JxjQhkmTE5tAGikNga0W-166" value="&lt;span style=&quot;color: rgb(0, 0, 0); font-family: Helvetica; font-style: normal; font-variant-ligatures: normal; font-variant-caps: normal; font-weight: 400; letter-spacing: normal; orphans: 2; text-align: center; text-indent: 0px; text-transform: none; widows: 2; word-spacing: 0px; -webkit-text-stroke-width: 0px; text-decoration-thickness: initial; text-decoration-style: initial; text-decoration-color: initial; float: none; display: inline !important;&quot;&gt;&lt;font style=&quot;font-size: 10px;&quot;&gt;req_sh_w | req_lh_w&lt;/font&gt;&lt;/span&gt;" style="text;whiteSpace=wrap;html=1;" vertex="1" parent="1">
          <mxGeometry x="302" y="478" width="102" height="20" as="geometry" />
        </mxCell>
        <mxCell id="JxjQhkmTE5tAGikNga0W-167" value="&lt;span style=&quot;color: rgb(0, 0, 0); font-family: Helvetica; font-style: normal; font-variant-ligatures: normal; font-variant-caps: normal; font-weight: 400; letter-spacing: normal; orphans: 2; text-align: center; text-indent: 0px; text-transform: none; widows: 2; word-spacing: 0px; -webkit-text-stroke-width: 0px; text-decoration-thickness: initial; text-decoration-style: initial; text-decoration-color: initial; float: none; display: inline !important;&quot;&gt;&lt;font style=&quot;font-size: 10px;&quot;&gt;mem_addr_r[31:0]&lt;/font&gt;&lt;/span&gt;" style="text;whiteSpace=wrap;html=1;" vertex="1" parent="1">
          <mxGeometry x="312" y="538" width="80" height="18" as="geometry" />
        </mxCell>
        <mxCell id="JxjQhkmTE5tAGikNga0W-168" value="" style="endArrow=classic;html=1;rounded=0;strokeWidth=1;exitX=1;exitY=0.11;exitDx=0;exitDy=0;exitPerimeter=0;" edge="1" parent="1">
          <mxGeometry width="50" height="50" relative="1" as="geometry">
            <mxPoint x="300" y="520" as="sourcePoint" />
            <mxPoint x="410" y="520" as="targetPoint" />
          </mxGeometry>
        </mxCell>
        <mxCell id="JxjQhkmTE5tAGikNga0W-169" value="" style="endArrow=classic;html=1;rounded=0;strokeWidth=1;exitX=0.001;exitY=0.072;exitDx=0;exitDy=0;exitPerimeter=0;" edge="1" parent="1">
          <mxGeometry width="50" height="50" relative="1" as="geometry">
            <mxPoint x="299.99999999999994" y="540" as="sourcePoint" />
            <mxPoint x="410" y="540" as="targetPoint" />
          </mxGeometry>
        </mxCell>
        <mxCell id="JxjQhkmTE5tAGikNga0W-170" value="" style="endArrow=classic;html=1;rounded=0;strokeWidth=1;exitX=1.002;exitY=0.481;exitDx=0;exitDy=0;exitPerimeter=0;" edge="1" parent="1">
          <mxGeometry width="50" height="50" relative="1" as="geometry">
            <mxPoint x="300" y="580" as="sourcePoint" />
            <mxPoint x="410" y="580" as="targetPoint" />
          </mxGeometry>
        </mxCell>
        <mxCell id="JxjQhkmTE5tAGikNga0W-171" value="&lt;div style=&quot;text-align: center;&quot;&gt;&lt;span style=&quot;background-color: initial; font-size: 10px;&quot;&gt;load_inst_w&lt;/span&gt;&lt;/div&gt;" style="text;whiteSpace=wrap;html=1;" vertex="1" parent="1">
          <mxGeometry x="341" y="498" width="75" height="18" as="geometry" />
        </mxCell>
        <mxCell id="JxjQhkmTE5tAGikNga0W-172" value="&lt;span style=&quot;color: rgb(0, 0, 0); font-family: Helvetica; font-style: normal; font-variant-ligatures: normal; font-variant-caps: normal; font-weight: 400; letter-spacing: normal; orphans: 2; text-align: center; text-indent: 0px; text-transform: none; widows: 2; word-spacing: 0px; -webkit-text-stroke-width: 0px; text-decoration-thickness: initial; text-decoration-style: initial; text-decoration-color: initial; float: none; display: inline !important;&quot;&gt;&lt;font style=&quot;font-size: 10px;&quot;&gt;load_signed_inst_w&lt;/font&gt;&lt;/span&gt;" style="text;whiteSpace=wrap;html=1;" vertex="1" parent="1">
          <mxGeometry x="306" y="518" width="52" height="18" as="geometry" />
        </mxCell>
        <mxCell id="JxjQhkmTE5tAGikNga0W-177" value="&lt;span style=&quot;color: rgb(0, 0, 0); font-family: Helvetica; font-style: normal; font-variant-ligatures: normal; font-variant-caps: normal; font-weight: 400; letter-spacing: normal; orphans: 2; text-align: center; text-indent: 0px; text-transform: none; widows: 2; word-spacing: 0px; -webkit-text-stroke-width: 0px; text-decoration-thickness: initial; text-decoration-style: initial; text-decoration-color: initial; float: none; display: inline !important;&quot;&gt;&lt;font style=&quot;font-size: 10px;&quot;&gt;mem_data_r[31:0]&lt;/font&gt;&lt;/span&gt;" style="text;whiteSpace=wrap;html=1;" vertex="1" parent="1">
          <mxGeometry x="312" y="558" width="80" height="18" as="geometry" />
        </mxCell>
        <mxCell id="JxjQhkmTE5tAGikNga0W-178" value="D" style="rounded=1;whiteSpace=wrap;html=1;" vertex="1" parent="1">
          <mxGeometry x="410" y="612" width="40" height="17" as="geometry" />
        </mxCell>
        <mxCell id="JxjQhkmTE5tAGikNga0W-179" value="D" style="rounded=1;whiteSpace=wrap;html=1;" vertex="1" parent="1">
          <mxGeometry x="410" y="552" width="40" height="17" as="geometry" />
        </mxCell>
        <mxCell id="JxjQhkmTE5tAGikNga0W-180" value="D" style="rounded=1;whiteSpace=wrap;html=1;" vertex="1" parent="1">
          <mxGeometry x="410" y="472" width="40" height="17" as="geometry" />
        </mxCell>
        <mxCell id="JxjQhkmTE5tAGikNga0W-181" value="D" style="rounded=1;whiteSpace=wrap;html=1;" vertex="1" parent="1">
          <mxGeometry x="410" y="492" width="40" height="17" as="geometry" />
        </mxCell>
        <mxCell id="JxjQhkmTE5tAGikNga0W-182" value="D" style="rounded=1;whiteSpace=wrap;html=1;" vertex="1" parent="1">
          <mxGeometry x="410" y="592" width="40" height="17" as="geometry" />
        </mxCell>
        <mxCell id="JxjQhkmTE5tAGikNga0W-183" value="D" style="rounded=1;whiteSpace=wrap;html=1;" vertex="1" parent="1">
          <mxGeometry x="410" y="512" width="40" height="17" as="geometry" />
        </mxCell>
        <mxCell id="JxjQhkmTE5tAGikNga0W-184" value="D" style="rounded=1;whiteSpace=wrap;html=1;" vertex="1" parent="1">
          <mxGeometry x="410" y="532" width="40" height="17" as="geometry" />
        </mxCell>
        <mxCell id="JxjQhkmTE5tAGikNga0W-185" value="D" style="rounded=1;whiteSpace=wrap;html=1;" vertex="1" parent="1">
          <mxGeometry x="410" y="572" width="40" height="17" as="geometry" />
        </mxCell>
        <mxCell id="JxjQhkmTE5tAGikNga0W-186" value="" style="endArrow=classic;html=1;rounded=0;strokeWidth=1;exitX=1;exitY=0.11;exitDx=0;exitDy=0;exitPerimeter=0;" edge="1" parent="1">
          <mxGeometry width="50" height="50" relative="1" as="geometry">
            <mxPoint x="450" y="600" as="sourcePoint" />
            <mxPoint x="530" y="600" as="targetPoint" />
          </mxGeometry>
        </mxCell>
        <mxCell id="JxjQhkmTE5tAGikNga0W-187" value="" style="endArrow=classic;html=1;rounded=0;strokeWidth=1;exitX=0.001;exitY=0.072;exitDx=0;exitDy=0;exitPerimeter=0;" edge="1" parent="1">
          <mxGeometry width="50" height="50" relative="1" as="geometry">
            <mxPoint x="450" y="620" as="sourcePoint" />
            <mxPoint x="530" y="620" as="targetPoint" />
          </mxGeometry>
        </mxCell>
        <mxCell id="JxjQhkmTE5tAGikNga0W-188" value="" style="endArrow=classic;html=1;rounded=0;strokeWidth=1;exitX=1.002;exitY=0.481;exitDx=0;exitDy=0;exitPerimeter=0;" edge="1" parent="1">
          <mxGeometry width="50" height="50" relative="1" as="geometry">
            <mxPoint x="450" y="560" as="sourcePoint" />
            <mxPoint x="570" y="560" as="targetPoint" />
          </mxGeometry>
        </mxCell>
        <mxCell id="JxjQhkmTE5tAGikNga0W-189" value="&lt;span style=&quot;color: rgb(0, 0, 0); font-family: Helvetica; font-style: normal; font-variant-ligatures: normal; font-variant-caps: normal; font-weight: 400; letter-spacing: normal; orphans: 2; text-align: center; text-indent: 0px; text-transform: none; widows: 2; word-spacing: 0px; -webkit-text-stroke-width: 0px; text-decoration-thickness: initial; text-decoration-style: initial; text-decoration-color: initial; float: none; display: inline !important;&quot;&gt;&lt;font style=&quot;font-size: 10px;&quot;&gt;mem_wr_q[3:0]&lt;/font&gt;&lt;/span&gt;" style="text;whiteSpace=wrap;html=1;" vertex="1" parent="1">
          <mxGeometry x="450" y="578" width="75" height="18" as="geometry" />
        </mxCell>
        <mxCell id="JxjQhkmTE5tAGikNga0W-190" value="&lt;span style=&quot;color: rgb(0, 0, 0); font-family: Helvetica; font-style: normal; font-variant-ligatures: normal; font-variant-caps: normal; font-weight: 400; letter-spacing: normal; orphans: 2; text-align: center; text-indent: 0px; text-transform: none; widows: 2; word-spacing: 0px; -webkit-text-stroke-width: 0px; text-decoration-thickness: initial; text-decoration-style: initial; text-decoration-color: initial; float: none; display: inline !important;&quot;&gt;&lt;font style=&quot;font-size: 10px;&quot;&gt;mem_rd_q&lt;/font&gt;&lt;/span&gt;" style="text;whiteSpace=wrap;html=1;" vertex="1" parent="1">
          <mxGeometry x="471" y="598" width="52" height="18" as="geometry" />
        </mxCell>
        <mxCell id="JxjQhkmTE5tAGikNga0W-191" value="&lt;div style=&quot;text-align: center;&quot;&gt;&lt;span style=&quot;background-color: initial; font-size: 10px;&quot;&gt;mem_xb_q&lt;/span&gt;&lt;/div&gt;" style="text;whiteSpace=wrap;html=1;" vertex="1" parent="1">
          <mxGeometry x="509" y="458" width="58" height="22" as="geometry" />
        </mxCell>
        <mxCell id="JxjQhkmTE5tAGikNga0W-192" value="" style="endArrow=classic;html=1;rounded=0;strokeWidth=1;" edge="1" parent="1">
          <mxGeometry width="50" height="50" relative="1" as="geometry">
            <mxPoint x="450" y="480" as="sourcePoint" />
            <mxPoint x="570" y="480" as="targetPoint" />
          </mxGeometry>
        </mxCell>
        <mxCell id="JxjQhkmTE5tAGikNga0W-193" value="" style="endArrow=classic;html=1;rounded=0;strokeWidth=1;" edge="1" parent="1">
          <mxGeometry width="50" height="50" relative="1" as="geometry">
            <mxPoint x="450" y="499.9999999999999" as="sourcePoint" />
            <mxPoint x="570" y="500" as="targetPoint" />
          </mxGeometry>
        </mxCell>
        <mxCell id="JxjQhkmTE5tAGikNga0W-194" value="&lt;span style=&quot;color: rgb(0, 0, 0); font-family: Helvetica; font-style: normal; font-variant-ligatures: normal; font-variant-caps: normal; font-weight: 400; letter-spacing: normal; orphans: 2; text-align: center; text-indent: 0px; text-transform: none; widows: 2; word-spacing: 0px; -webkit-text-stroke-width: 0px; text-decoration-thickness: initial; text-decoration-style: initial; text-decoration-color: initial; float: none; display: inline !important;&quot;&gt;&lt;font style=&quot;font-size: 10px;&quot;&gt;mem_xh_q&lt;/font&gt;&lt;/span&gt;" style="text;whiteSpace=wrap;html=1;" vertex="1" parent="1">
          <mxGeometry x="509" y="478" width="57" height="20" as="geometry" />
        </mxCell>
        <mxCell id="JxjQhkmTE5tAGikNga0W-195" value="&lt;span style=&quot;color: rgb(0, 0, 0); font-family: Helvetica; font-style: normal; font-variant-ligatures: normal; font-variant-caps: normal; font-weight: 400; letter-spacing: normal; orphans: 2; text-align: center; text-indent: 0px; text-transform: none; widows: 2; word-spacing: 0px; -webkit-text-stroke-width: 0px; text-decoration-thickness: initial; text-decoration-style: initial; text-decoration-color: initial; float: none; display: inline !important;&quot;&gt;&lt;font style=&quot;font-size: 10px;&quot;&gt;mem_addr_q[31:0]&lt;/font&gt;&lt;/span&gt;" style="text;whiteSpace=wrap;html=1;" vertex="1" parent="1">
          <mxGeometry x="475" y="538" width="80" height="18" as="geometry" />
        </mxCell>
        <mxCell id="JxjQhkmTE5tAGikNga0W-196" value="" style="endArrow=classic;html=1;rounded=0;strokeWidth=1;exitX=1;exitY=0.11;exitDx=0;exitDy=0;exitPerimeter=0;" edge="1" parent="1">
          <mxGeometry width="50" height="50" relative="1" as="geometry">
            <mxPoint x="450" y="520" as="sourcePoint" />
            <mxPoint x="570" y="520" as="targetPoint" />
          </mxGeometry>
        </mxCell>
        <mxCell id="JxjQhkmTE5tAGikNga0W-197" value="" style="endArrow=classic;html=1;rounded=0;strokeWidth=1;exitX=0.001;exitY=0.072;exitDx=0;exitDy=0;exitPerimeter=0;" edge="1" parent="1">
          <mxGeometry width="50" height="50" relative="1" as="geometry">
            <mxPoint x="449.99999999999994" y="540" as="sourcePoint" />
            <mxPoint x="570" y="540" as="targetPoint" />
          </mxGeometry>
        </mxCell>
        <mxCell id="JxjQhkmTE5tAGikNga0W-199" value="&lt;div style=&quot;text-align: center;&quot;&gt;&lt;span style=&quot;background-color: initial; font-size: 10px;&quot;&gt;mem_load_q&lt;/span&gt;&lt;/div&gt;" style="text;whiteSpace=wrap;html=1;" vertex="1" parent="1">
          <mxGeometry x="501" y="498" width="73" height="16" as="geometry" />
        </mxCell>
        <mxCell id="JxjQhkmTE5tAGikNga0W-200" value="&lt;span style=&quot;color: rgb(0, 0, 0); font-family: Helvetica; font-style: normal; font-variant-ligatures: normal; font-variant-caps: normal; font-weight: 400; letter-spacing: normal; orphans: 2; text-align: center; text-indent: 0px; text-transform: none; widows: 2; word-spacing: 0px; -webkit-text-stroke-width: 0px; text-decoration-thickness: initial; text-decoration-style: initial; text-decoration-color: initial; float: none; display: inline !important;&quot;&gt;&lt;font style=&quot;font-size: 10px;&quot;&gt;mem_ls_q&lt;/font&gt;&lt;/span&gt;" style="text;whiteSpace=wrap;html=1;" vertex="1" parent="1">
          <mxGeometry x="512" y="518" width="52" height="18" as="geometry" />
        </mxCell>
        <mxCell id="JxjQhkmTE5tAGikNga0W-201" value="&lt;span style=&quot;color: rgb(0, 0, 0); font-family: Helvetica; font-style: normal; font-variant-ligatures: normal; font-variant-caps: normal; font-weight: 400; letter-spacing: normal; orphans: 2; text-align: center; text-indent: 0px; text-transform: none; widows: 2; word-spacing: 0px; -webkit-text-stroke-width: 0px; text-decoration-thickness: initial; text-decoration-style: initial; text-decoration-color: initial; float: none; display: inline !important;&quot;&gt;&lt;font style=&quot;font-size: 10px;&quot;&gt;mem_data_wr_q[31:0]&lt;/font&gt;&lt;/span&gt;" style="text;whiteSpace=wrap;html=1;" vertex="1" parent="1">
          <mxGeometry x="450" y="558" width="80" height="18" as="geometry" />
        </mxCell>
        <mxCell id="JxjQhkmTE5tAGikNga0W-202" value="" style="shape=xor;whiteSpace=wrap;html=1;" vertex="1" parent="1">
          <mxGeometry x="528" y="595" width="20" height="30" as="geometry" />
        </mxCell>
        <mxCell id="JxjQhkmTE5tAGikNga0W-203" value="" style="endArrow=classic;html=1;rounded=0;strokeWidth=1;" edge="1" parent="1">
          <mxGeometry width="50" height="50" relative="1" as="geometry">
            <mxPoint x="548" y="610" as="sourcePoint" />
            <mxPoint x="570" y="610" as="targetPoint" />
          </mxGeometry>
        </mxCell>
        <mxCell id="JxjQhkmTE5tAGikNga0W-206" value="&lt;font style=&quot;font-size: 13px;&quot;&gt;LSU &lt;br&gt;FIFO&lt;br&gt;&lt;/font&gt;" style="rounded=1;whiteSpace=wrap;html=1;" vertex="1" parent="1">
          <mxGeometry x="570" y="460" width="90" height="180" as="geometry" />
        </mxCell>
        <mxCell id="JxjQhkmTE5tAGikNga0W-207" value="&lt;span style=&quot;color: rgb(0, 0, 0); font-family: Helvetica; font-style: normal; font-variant-ligatures: normal; font-variant-caps: normal; font-weight: 400; letter-spacing: normal; orphans: 2; text-align: center; text-indent: 0px; text-transform: none; widows: 2; word-spacing: 0px; -webkit-text-stroke-width: 0px; background-color: rgb(251, 251, 251); text-decoration-thickness: initial; text-decoration-style: initial; text-decoration-color: initial; float: none; display: inline !important;&quot;&gt;&lt;font style=&quot;font-size: 10px;&quot;&gt;data_in_i[35:0]&lt;/font&gt;&lt;/span&gt;" style="text;whiteSpace=wrap;html=1;" vertex="1" parent="1">
          <mxGeometry x="570" y="503" width="40" height="6" as="geometry" />
        </mxCell>
        <mxCell id="JxjQhkmTE5tAGikNga0W-208" value="&lt;span style=&quot;color: rgb(0, 0, 0); font-family: Helvetica; font-style: normal; font-variant-ligatures: normal; font-variant-caps: normal; font-weight: 400; letter-spacing: normal; orphans: 2; text-align: center; text-indent: 0px; text-transform: none; widows: 2; word-spacing: 0px; -webkit-text-stroke-width: 0px; background-color: rgb(251, 251, 251); text-decoration-thickness: initial; text-decoration-style: initial; text-decoration-color: initial; float: none; display: inline !important;&quot;&gt;&lt;font style=&quot;font-size: 10px;&quot;&gt;push_i&lt;/font&gt;&lt;/span&gt;" style="text;whiteSpace=wrap;html=1;" vertex="1" parent="1">
          <mxGeometry x="570" y="594" width="60" height="20" as="geometry" />
        </mxCell>
        <mxCell id="JxjQhkmTE5tAGikNga0W-209" value="&lt;span style=&quot;color: rgb(0, 0, 0); font-family: Helvetica; font-style: normal; font-variant-ligatures: normal; font-variant-caps: normal; font-weight: 400; letter-spacing: normal; orphans: 2; text-align: center; text-indent: 0px; text-transform: none; widows: 2; word-spacing: 0px; -webkit-text-stroke-width: 0px; background-color: rgb(251, 251, 251); text-decoration-thickness: initial; text-decoration-style: initial; text-decoration-color: initial; float: none; display: inline !important;&quot;&gt;&lt;font style=&quot;font-size: 10px;&quot;&gt;data_out_o[35:0]&lt;/font&gt;&lt;/span&gt;" style="text;whiteSpace=wrap;html=1;" vertex="1" parent="1">
          <mxGeometry x="580" y="561" width="70" height="20" as="geometry" />
        </mxCell>
        <mxCell id="JxjQhkmTE5tAGikNga0W-210" value="&lt;span style=&quot;color: rgb(0, 0, 0); font-family: Helvetica; font-style: normal; font-variant-ligatures: normal; font-variant-caps: normal; font-weight: 400; letter-spacing: normal; orphans: 2; text-align: center; text-indent: 0px; text-transform: none; widows: 2; word-spacing: 0px; -webkit-text-stroke-width: 0px; background-color: rgb(251, 251, 251); text-decoration-thickness: initial; text-decoration-style: initial; text-decoration-color: initial; float: none; display: inline !important;&quot;&gt;&lt;font style=&quot;font-size: 10px;&quot;&gt;pop_i&lt;/font&gt;&lt;/span&gt;" style="text;whiteSpace=wrap;html=1;" vertex="1" parent="1">
          <mxGeometry x="598" y="617" width="60" height="20" as="geometry" />
        </mxCell>
        <mxCell id="JxjQhkmTE5tAGikNga0W-211" value="" style="endArrow=classic;html=1;rounded=0;" edge="1" parent="1">
          <mxGeometry width="50" height="50" relative="1" as="geometry">
            <mxPoint x="610" y="660" as="sourcePoint" />
            <mxPoint x="610" y="640" as="targetPoint" />
          </mxGeometry>
        </mxCell>
        <mxCell id="JxjQhkmTE5tAGikNga0W-212" value="&lt;span style=&quot;color: rgb(0, 0, 0); font-family: Helvetica; font-style: normal; font-variant-ligatures: normal; font-variant-caps: normal; font-weight: 400; letter-spacing: normal; orphans: 2; text-align: center; text-indent: 0px; text-transform: none; widows: 2; word-spacing: 0px; -webkit-text-stroke-width: 0px; text-decoration-thickness: initial; text-decoration-style: initial; text-decoration-color: initial; float: none; display: inline !important;&quot;&gt;&lt;font style=&quot;font-size: 10px;&quot;&gt;mem_ack_i&lt;/font&gt;&lt;/span&gt;" style="text;whiteSpace=wrap;html=1;" vertex="1" parent="1">
          <mxGeometry x="586" y="650" width="52" height="18" as="geometry" />
        </mxCell>
        <mxCell id="JxjQhkmTE5tAGikNga0W-213" value="MMU" style="rounded=1;whiteSpace=wrap;html=1;" vertex="1" parent="1">
          <mxGeometry x="570" y="680" width="90" height="80" as="geometry" />
        </mxCell>
        <mxCell id="JxjQhkmTE5tAGikNga0W-214" value="" style="endArrow=classic;html=1;rounded=0;strokeWidth=1;exitX=0.001;exitY=0.072;exitDx=0;exitDy=0;exitPerimeter=0;" edge="1" parent="1">
          <mxGeometry width="50" height="50" relative="1" as="geometry">
            <mxPoint x="449.99999999999994" y="580" as="sourcePoint" />
            <mxPoint x="570" y="710" as="targetPoint" />
            <Array as="points">
              <mxPoint x="550" y="580" />
              <mxPoint x="550" y="710" />
            </Array>
          </mxGeometry>
        </mxCell>
        <mxCell id="JxjQhkmTE5tAGikNga0W-216" value="" style="endArrow=classic;html=1;rounded=0;" edge="1" parent="1">
          <mxGeometry width="50" height="50" relative="1" as="geometry">
            <mxPoint x="470" y="600" as="sourcePoint" />
            <mxPoint x="570" y="730" as="targetPoint" />
            <Array as="points">
              <mxPoint x="470" y="730" />
            </Array>
          </mxGeometry>
        </mxCell>
        <mxCell id="JxjQhkmTE5tAGikNga0W-217" value="" style="endArrow=classic;html=1;rounded=0;" edge="1" parent="1">
          <mxGeometry width="50" height="50" relative="1" as="geometry">
            <mxPoint x="460" y="620" as="sourcePoint" />
            <mxPoint x="570" y="750" as="targetPoint" />
            <Array as="points">
              <mxPoint x="460" y="750" />
            </Array>
          </mxGeometry>
        </mxCell>
        <mxCell id="JxjQhkmTE5tAGikNga0W-218" value="" style="endArrow=classic;html=1;rounded=0;" edge="1" parent="1">
          <mxGeometry width="50" height="50" relative="1" as="geometry">
            <mxPoint x="560" y="560" as="sourcePoint" />
            <mxPoint x="570" y="690" as="targetPoint" />
            <Array as="points">
              <mxPoint x="560" y="690" />
            </Array>
          </mxGeometry>
        </mxCell>
        <mxCell id="JxjQhkmTE5tAGikNga0W-219" value="&lt;font style=&quot;font-size: 12px;&quot;&gt;LOAD&lt;br&gt;Response&lt;/font&gt;" style="rounded=1;whiteSpace=wrap;html=1;" vertex="1" parent="1">
          <mxGeometry x="780" y="460" width="90" height="180" as="geometry" />
        </mxCell>
        <mxCell id="JxjQhkmTE5tAGikNga0W-220" value="" style="endArrow=classic;html=1;rounded=0;strokeWidth=1;exitX=1.002;exitY=0.481;exitDx=0;exitDy=0;exitPerimeter=0;" edge="1" parent="1">
          <mxGeometry width="50" height="50" relative="1" as="geometry">
            <mxPoint x="660" y="559" as="sourcePoint" />
            <mxPoint x="780" y="559" as="targetPoint" />
          </mxGeometry>
        </mxCell>
        <mxCell id="JxjQhkmTE5tAGikNga0W-221" value="&lt;div style=&quot;text-align: center;&quot;&gt;&lt;span style=&quot;font-size: 10px;&quot;&gt;addr_lsb_r[1:0]&lt;/span&gt;&lt;/div&gt;" style="text;whiteSpace=wrap;html=1;" vertex="1" parent="1">
          <mxGeometry x="702" y="457" width="58" height="22" as="geometry" />
        </mxCell>
        <mxCell id="JxjQhkmTE5tAGikNga0W-222" value="" style="endArrow=classic;html=1;rounded=0;strokeWidth=1;" edge="1" parent="1">
          <mxGeometry width="50" height="50" relative="1" as="geometry">
            <mxPoint x="660" y="479" as="sourcePoint" />
            <mxPoint x="780" y="479" as="targetPoint" />
          </mxGeometry>
        </mxCell>
        <mxCell id="JxjQhkmTE5tAGikNga0W-223" value="" style="endArrow=classic;html=1;rounded=0;strokeWidth=1;" edge="1" parent="1">
          <mxGeometry width="50" height="50" relative="1" as="geometry">
            <mxPoint x="660" y="498.9999999999999" as="sourcePoint" />
            <mxPoint x="780" y="499" as="targetPoint" />
          </mxGeometry>
        </mxCell>
        <mxCell id="JxjQhkmTE5tAGikNga0W-224" value="&lt;span style=&quot;color: rgb(0, 0, 0); font-family: Helvetica; font-style: normal; font-variant-ligatures: normal; font-variant-caps: normal; font-weight: 400; letter-spacing: normal; orphans: 2; text-align: center; text-indent: 0px; text-transform: none; widows: 2; word-spacing: 0px; -webkit-text-stroke-width: 0px; text-decoration-thickness: initial; text-decoration-style: initial; text-decoration-color: initial; float: none; display: inline !important;&quot;&gt;&lt;font style=&quot;font-size: 10px;&quot;&gt;load_byte_r&lt;/font&gt;&lt;/span&gt;" style="text;whiteSpace=wrap;html=1;" vertex="1" parent="1">
          <mxGeometry x="715" y="477" width="57" height="20" as="geometry" />
        </mxCell>
        <mxCell id="JxjQhkmTE5tAGikNga0W-225" value="&lt;span style=&quot;color: rgb(0, 0, 0); font-family: Helvetica; font-style: normal; font-variant-ligatures: normal; font-variant-caps: normal; font-weight: 400; letter-spacing: normal; orphans: 2; text-align: center; text-indent: 0px; text-transform: none; widows: 2; word-spacing: 0px; -webkit-text-stroke-width: 0px; text-decoration-thickness: initial; text-decoration-style: initial; text-decoration-color: initial; float: none; display: inline !important;&quot;&gt;&lt;font style=&quot;font-size: 10px;&quot;&gt;resp_load_w&lt;/font&gt;&lt;/span&gt;" style="text;whiteSpace=wrap;html=1;" vertex="1" parent="1">
          <mxGeometry x="711" y="537" width="63" height="18" as="geometry" />
        </mxCell>
        <mxCell id="JxjQhkmTE5tAGikNga0W-226" value="" style="endArrow=classic;html=1;rounded=0;strokeWidth=1;exitX=1;exitY=0.11;exitDx=0;exitDy=0;exitPerimeter=0;" edge="1" parent="1">
          <mxGeometry width="50" height="50" relative="1" as="geometry">
            <mxPoint x="660" y="519" as="sourcePoint" />
            <mxPoint x="780" y="519" as="targetPoint" />
          </mxGeometry>
        </mxCell>
        <mxCell id="JxjQhkmTE5tAGikNga0W-227" value="" style="endArrow=classic;html=1;rounded=0;strokeWidth=1;exitX=0.001;exitY=0.072;exitDx=0;exitDy=0;exitPerimeter=0;" edge="1" parent="1">
          <mxGeometry width="50" height="50" relative="1" as="geometry">
            <mxPoint x="660" y="539" as="sourcePoint" />
            <mxPoint x="780" y="539" as="targetPoint" />
          </mxGeometry>
        </mxCell>
        <mxCell id="JxjQhkmTE5tAGikNga0W-228" value="&lt;div style=&quot;text-align: center;&quot;&gt;&lt;span style=&quot;background-color: initial; font-size: 10px;&quot;&gt;load_half_r&lt;/span&gt;&lt;/div&gt;" style="text;whiteSpace=wrap;html=1;" vertex="1" parent="1">
          <mxGeometry x="719" y="497" width="54" height="13" as="geometry" />
        </mxCell>
        <mxCell id="JxjQhkmTE5tAGikNga0W-229" value="&lt;span style=&quot;color: rgb(0, 0, 0); font-family: Helvetica; font-style: normal; font-variant-ligatures: normal; font-variant-caps: normal; font-weight: 400; letter-spacing: normal; orphans: 2; text-align: center; text-indent: 0px; text-transform: none; widows: 2; word-spacing: 0px; -webkit-text-stroke-width: 0px; text-decoration-thickness: initial; text-decoration-style: initial; text-decoration-color: initial; float: none; display: inline !important;&quot;&gt;&lt;font style=&quot;font-size: 10px;&quot;&gt;load_signed_r&lt;/font&gt;&lt;/span&gt;" style="text;whiteSpace=wrap;html=1;" vertex="1" parent="1">
          <mxGeometry x="705" y="517" width="52" height="18" as="geometry" />
        </mxCell>
        <mxCell id="JxjQhkmTE5tAGikNga0W-230" value="" style="endArrow=classic;html=1;rounded=0;entryX=0.009;entryY=0.774;entryDx=0;entryDy=0;entryPerimeter=0;" edge="1" parent="1" target="JxjQhkmTE5tAGikNga0W-219">
          <mxGeometry width="50" height="50" relative="1" as="geometry">
            <mxPoint x="660" y="720" as="sourcePoint" />
            <mxPoint x="710" y="670" as="targetPoint" />
            <Array as="points">
              <mxPoint x="680" y="720" />
              <mxPoint x="680" y="600" />
            </Array>
          </mxGeometry>
        </mxCell>
        <mxCell id="JxjQhkmTE5tAGikNga0W-231" value="&lt;div style=&quot;text-align: center;&quot;&gt;&lt;span style=&quot;background-color: initial; font-size: 10px;&quot;&gt;mem_data_rd_i[31:0]&lt;/span&gt;&lt;/div&gt;" style="text;whiteSpace=wrap;html=1;" vertex="1" parent="1">
          <mxGeometry x="674" y="578" width="100" height="20" as="geometry" />
        </mxCell>
        <mxCell id="JxjQhkmTE5tAGikNga0W-232" value="&lt;span style=&quot;color: rgb(0, 0, 0); font-family: Helvetica; font-style: normal; font-variant-ligatures: normal; font-variant-caps: normal; font-weight: 400; letter-spacing: normal; orphans: 2; text-align: center; text-indent: 0px; text-transform: none; widows: 2; word-spacing: 0px; -webkit-text-stroke-width: 0px; text-decoration-thickness: initial; text-decoration-style: initial; text-decoration-color: initial; float: none; display: inline !important;&quot;&gt;&lt;font style=&quot;font-size: 10px;&quot;&gt;writeback_value_o[31:0]&lt;/font&gt;&lt;/span&gt;" style="text;whiteSpace=wrap;html=1;" vertex="1" parent="1">
          <mxGeometry x="981" y="520" width="96" height="13" as="geometry" />
        </mxCell>
        <mxCell id="JxjQhkmTE5tAGikNga0W-233" value="" style="endArrow=classic;html=1;rounded=0;" edge="1" parent="1">
          <mxGeometry width="50" height="50" relative="1" as="geometry">
            <mxPoint x="870" y="542" as="sourcePoint" />
            <mxPoint x="1100" y="542" as="targetPoint" />
          </mxGeometry>
        </mxCell>
      </root>
    </mxGraphModel>
  </diagram>
</mxfile>
